<svg width="4" height="5" viewBox="0 0 4 5" fill="none" xmlns="http://www.w3.org/2000/svg">
<rect x="0.158837" y="0.758824" width="3.28235" height="3.28235" rx="1.64118" fill="#F5F5FF"/>
<rect x="0.158837" y="0.758824" width="3.28235" height="3.28235" rx="1.64118" stroke="white" stroke-width="0.105882"/>
<g clip-path="url(#clip0_1_8026)">
<path fill-rule="evenodd" clip-rule="evenodd" d="M1.16472 1.87059C1.04777 1.87059 0.952957 1.9654 0.952957 2.08235V2.92941C0.952957 3.04637 1.04777 3.14118 1.16472 3.14118H2.43531C2.55226 3.14118 2.64707 3.04637 2.64707 2.92941V2.08235C2.64707 1.9654 2.55226 1.87059 2.43531 1.87059H2.2674C2.23932 1.87059 2.21239 1.85943 2.19253 1.83958L2.07381 1.72085C2.03409 1.68114 1.98023 1.65882 1.92406 1.65882H1.67597C1.6198 1.65882 1.56594 1.68114 1.52623 1.72085L1.4075 1.83958C1.38764 1.85943 1.36071 1.87059 1.33263 1.87059H1.16472ZM1.80002 2.82353C1.97545 2.82353 2.11766 2.68132 2.11766 2.50588C2.11766 2.33045 1.97545 2.18824 1.80002 2.18824C1.62458 2.18824 1.48237 2.33045 1.48237 2.50588C1.48237 2.68132 1.62458 2.82353 1.80002 2.82353Z" fill="#FE8C00"/>
</g>
<defs>
<clipPath id="clip0_1_8026">
<rect width="2.11765" height="2.11765" fill="white" transform="translate(0.741196 1.34118)"/>
</clipPath>
</defs>
</svg>
