<svg width="3" height="3" viewBox="0 0 3 3" fill="none" xmlns="http://www.w3.org/2000/svg">
<g clip-path="url(#clip0_289_1135)">
<path d="M1.16983 0.904468C1.20746 0.74949 1.42787 0.74949 1.46549 0.904468C1.48979 1.00458 1.60449 1.05209 1.69247 0.998486C1.82866 0.915504 1.98451 1.07136 1.90153 1.20755C1.84792 1.29552 1.89543 1.41022 1.99555 1.43453C2.15052 1.47215 2.15052 1.69256 1.99555 1.73018C1.89543 1.75448 1.84792 1.86918 1.90153 1.95716C1.98451 2.09335 1.82866 2.2492 1.69247 2.16622C1.60449 2.11261 1.48979 2.16012 1.46549 2.26024C1.42787 2.41521 1.20746 2.41521 1.16983 2.26024C1.14553 2.16012 1.03083 2.11261 0.942855 2.16622C0.806665 2.2492 0.650814 2.09335 0.733796 1.95716C0.787401 1.86918 0.739891 1.75448 0.639778 1.73018C0.4848 1.69256 0.4848 1.47215 0.639777 1.43453C0.739891 1.41022 0.787401 1.29552 0.733796 1.20755C0.650814 1.07136 0.806665 0.915504 0.942855 0.998486C1.03083 1.05209 1.14553 1.00458 1.16983 0.904468Z" stroke="#101010" stroke-width="0.158824" stroke-linecap="round" stroke-linejoin="round"/>
<path d="M1.58237 1.58235C1.58237 1.72855 1.46385 1.84706 1.31766 1.84706C1.17147 1.84706 1.05296 1.72855 1.05296 1.58235C1.05296 1.43616 1.17147 1.31765 1.31766 1.31765C1.46385 1.31765 1.58237 1.43616 1.58237 1.58235Z" stroke="#101010" stroke-width="0.158824" stroke-linecap="round" stroke-linejoin="round"/>
</g>
<defs>
<clipPath id="clip0_289_1135">
<rect width="2.11765" height="2.11765" fill="white" transform="translate(0.258835 0.523529)"/>
</clipPath>
</defs>
</svg>
